<mxfile host="app.diagrams.net" modified="2023-11-04T20:18:41.754Z" agent="Mozilla/5.0 (Windows NT 10.0; Win64; x64) AppleWebKit/537.36 (KHTML, like Gecko) Chrome/119.0.0.0 Safari/537.36" etag="l5jpzi-hAzU8WeEXgUkh" version="21.7.5" type="github">
  <diagram name="Page-1" id="3SnuVNbN8GcKIh2ZC8Z5">
    <mxGraphModel dx="2261" dy="750" grid="1" gridSize="10" guides="1" tooltips="1" connect="1" arrows="1" fold="1" page="1" pageScale="1" pageWidth="827" pageHeight="1169" math="0" shadow="0">
      <root>
        <mxCell id="0" />
        <mxCell id="1" parent="0" />
        <mxCell id="pO1jTsx1TpuLJ8HW07vw-2" value="" style="shape=folder;fontStyle=1;spacingTop=10;tabWidth=40;tabHeight=14;tabPosition=left;html=1;whiteSpace=wrap;" vertex="1" parent="1">
          <mxGeometry x="90" y="40" width="390" height="360" as="geometry" />
        </mxCell>
        <mxCell id="pO1jTsx1TpuLJ8HW07vw-17" style="edgeStyle=orthogonalEdgeStyle;rounded=0;orthogonalLoop=1;jettySize=auto;html=1;exitX=0.25;exitY=1;exitDx=0;exitDy=0;entryX=0.25;entryY=0;entryDx=0;entryDy=0;dashed=1;" edge="1" parent="1" source="pO1jTsx1TpuLJ8HW07vw-3" target="pO1jTsx1TpuLJ8HW07vw-8">
          <mxGeometry relative="1" as="geometry" />
        </mxCell>
        <mxCell id="pO1jTsx1TpuLJ8HW07vw-20" value="use" style="edgeLabel;html=1;align=center;verticalAlign=middle;resizable=0;points=[];" vertex="1" connectable="0" parent="pO1jTsx1TpuLJ8HW07vw-17">
          <mxGeometry x="-0.08" relative="1" as="geometry">
            <mxPoint as="offset" />
          </mxGeometry>
        </mxCell>
        <mxCell id="pO1jTsx1TpuLJ8HW07vw-3" value="service.componetn.ts" style="shape=module;align=left;spacingLeft=20;align=center;verticalAlign=middle;whiteSpace=wrap;html=1;fillColor=#ffe6cc;strokeColor=#d79b00;" vertex="1" parent="1">
          <mxGeometry x="100" y="70" width="180" height="50" as="geometry" />
        </mxCell>
        <mxCell id="pO1jTsx1TpuLJ8HW07vw-14" style="edgeStyle=orthogonalEdgeStyle;rounded=1;orthogonalLoop=1;jettySize=auto;html=1;exitX=0.05;exitY=0.44;exitDx=0;exitDy=0;entryX=0.42;entryY=-0.06;entryDx=0;entryDy=0;entryPerimeter=0;endSize=24;endArrow=diamondThin;endFill=0;exitPerimeter=0;fillColor=#ffe6cc;strokeColor=#d79b00;" edge="1" parent="1" source="pO1jTsx1TpuLJ8HW07vw-3" target="pO1jTsx1TpuLJ8HW07vw-7">
          <mxGeometry relative="1" as="geometry">
            <Array as="points">
              <mxPoint x="60" y="92" />
              <mxPoint x="60" y="280" />
              <mxPoint x="263" y="280" />
            </Array>
          </mxGeometry>
        </mxCell>
        <mxCell id="pO1jTsx1TpuLJ8HW07vw-18" style="edgeStyle=orthogonalEdgeStyle;rounded=1;orthogonalLoop=1;jettySize=auto;html=1;exitX=0.25;exitY=1;exitDx=0;exitDy=0;entryX=0.75;entryY=1;entryDx=0;entryDy=0;dashed=1;" edge="1" parent="1" source="pO1jTsx1TpuLJ8HW07vw-5" target="pO1jTsx1TpuLJ8HW07vw-3">
          <mxGeometry relative="1" as="geometry" />
        </mxCell>
        <mxCell id="pO1jTsx1TpuLJ8HW07vw-21" value="use" style="edgeLabel;html=1;align=center;verticalAlign=middle;resizable=0;points=[];" vertex="1" connectable="0" parent="pO1jTsx1TpuLJ8HW07vw-18">
          <mxGeometry x="-0.1857" y="-1" relative="1" as="geometry">
            <mxPoint as="offset" />
          </mxGeometry>
        </mxCell>
        <mxCell id="pO1jTsx1TpuLJ8HW07vw-5" value="component.entity.ts" style="shape=module;align=left;spacingLeft=20;align=center;verticalAlign=middle;whiteSpace=wrap;html=1;fillColor=#d5e8d4;strokeColor=#82b366;" vertex="1" parent="1">
          <mxGeometry x="290" y="70" width="180" height="50" as="geometry" />
        </mxCell>
        <mxCell id="pO1jTsx1TpuLJ8HW07vw-15" style="edgeStyle=orthogonalEdgeStyle;rounded=1;orthogonalLoop=1;jettySize=auto;html=1;exitX=0.5;exitY=1;exitDx=0;exitDy=0;entryX=0.68;entryY=-0.04;entryDx=0;entryDy=0;entryPerimeter=0;endSize=24;endArrow=diamondThin;endFill=0;fillColor=#e1d5e7;strokeColor=#9673a6;" edge="1" parent="1" source="pO1jTsx1TpuLJ8HW07vw-6" target="pO1jTsx1TpuLJ8HW07vw-7">
          <mxGeometry relative="1" as="geometry">
            <Array as="points">
              <mxPoint x="380" y="290" />
              <mxPoint x="302" y="290" />
            </Array>
          </mxGeometry>
        </mxCell>
        <mxCell id="pO1jTsx1TpuLJ8HW07vw-16" style="edgeStyle=orthogonalEdgeStyle;rounded=1;orthogonalLoop=1;jettySize=auto;html=1;exitX=0.5;exitY=0;exitDx=0;exitDy=0;dashed=1;" edge="1" parent="1" source="pO1jTsx1TpuLJ8HW07vw-6" target="pO1jTsx1TpuLJ8HW07vw-3">
          <mxGeometry relative="1" as="geometry" />
        </mxCell>
        <mxCell id="pO1jTsx1TpuLJ8HW07vw-22" value="use" style="edgeLabel;html=1;align=center;verticalAlign=middle;resizable=0;points=[];" vertex="1" connectable="0" parent="pO1jTsx1TpuLJ8HW07vw-16">
          <mxGeometry x="0.2333" y="4" relative="1" as="geometry">
            <mxPoint as="offset" />
          </mxGeometry>
        </mxCell>
        <mxCell id="pO1jTsx1TpuLJ8HW07vw-6" value="repository.component.ts" style="shape=module;align=left;spacingLeft=20;align=center;verticalAlign=middle;whiteSpace=wrap;html=1;fillColor=#e1d5e7;strokeColor=#9673a6;" vertex="1" parent="1">
          <mxGeometry x="290" y="170" width="180" height="50" as="geometry" />
        </mxCell>
        <mxCell id="pO1jTsx1TpuLJ8HW07vw-7" value="component.module.ts" style="shape=module;align=left;spacingLeft=20;align=center;verticalAlign=middle;whiteSpace=wrap;html=1;fillColor=#f8cecc;strokeColor=#b85450;" vertex="1" parent="1">
          <mxGeometry x="200" y="330" width="150" height="50" as="geometry" />
        </mxCell>
        <mxCell id="pO1jTsx1TpuLJ8HW07vw-8" value="controller.component.ts" style="shape=module;align=left;spacingLeft=20;align=center;verticalAlign=middle;whiteSpace=wrap;html=1;fillColor=#dae8fc;strokeColor=#6c8ebf;" vertex="1" parent="1">
          <mxGeometry x="100" y="170" width="180" height="50" as="geometry" />
        </mxCell>
        <mxCell id="pO1jTsx1TpuLJ8HW07vw-9" value="" style="line;strokeWidth=1;fillColor=none;align=left;verticalAlign=middle;spacingTop=-1;spacingLeft=3;spacingRight=3;rotatable=0;labelPosition=right;points=[];portConstraint=eastwest;strokeColor=inherit;" vertex="1" parent="1">
          <mxGeometry x="90" y="260" width="390" height="8" as="geometry" />
        </mxCell>
        <mxCell id="pO1jTsx1TpuLJ8HW07vw-12" value="Extends" style="endArrow=block;endSize=16;endFill=1;html=1;exitX=1;exitY=0.5;exitDx=0;exitDy=0;entryX=1;entryY=0.5;entryDx=0;entryDy=0;fillColor=#d5e8d4;strokeColor=#82b366;rounded=1;" edge="1" parent="1" source="pO1jTsx1TpuLJ8HW07vw-5" target="pO1jTsx1TpuLJ8HW07vw-6">
          <mxGeometry width="160" relative="1" as="geometry">
            <mxPoint x="240" y="410" as="sourcePoint" />
            <mxPoint x="350" y="430" as="targetPoint" />
            <Array as="points">
              <mxPoint x="520" y="95" />
              <mxPoint x="520" y="195" />
            </Array>
          </mxGeometry>
        </mxCell>
        <mxCell id="pO1jTsx1TpuLJ8HW07vw-13" value="" style="endArrow=diamondThin;endFill=0;endSize=24;html=1;rounded=1;exitX=0.5;exitY=1;exitDx=0;exitDy=0;entryX=0.25;entryY=0;entryDx=0;entryDy=0;fillColor=#dae8fc;strokeColor=#6c8ebf;" edge="1" parent="1" source="pO1jTsx1TpuLJ8HW07vw-8" target="pO1jTsx1TpuLJ8HW07vw-7">
          <mxGeometry width="160" relative="1" as="geometry">
            <mxPoint x="300" y="400" as="sourcePoint" />
            <mxPoint x="460" y="400" as="targetPoint" />
            <Array as="points">
              <mxPoint x="190" y="290" />
              <mxPoint x="238" y="290" />
            </Array>
          </mxGeometry>
        </mxCell>
        <mxCell id="pO1jTsx1TpuLJ8HW07vw-23" value="component package" style="text;html=1;strokeColor=none;fillColor=none;align=center;verticalAlign=middle;whiteSpace=wrap;rounded=0;" vertex="1" parent="1">
          <mxGeometry x="110" y="30" width="160" height="30" as="geometry" />
        </mxCell>
        <mxCell id="pO1jTsx1TpuLJ8HW07vw-24" value="&lt;h1&gt;Componente&lt;/h1&gt;&lt;p&gt;Esquema estándar de la composición de un componente.&lt;br&gt;&lt;/p&gt;" style="text;html=1;strokeColor=none;fillColor=none;spacing=5;spacingTop=-20;whiteSpace=wrap;overflow=hidden;rounded=0;" vertex="1" parent="1">
          <mxGeometry x="560" y="50" width="190" height="120" as="geometry" />
        </mxCell>
        <mxCell id="pO1jTsx1TpuLJ8HW07vw-25" value="" style="whiteSpace=wrap;html=1;aspect=fixed;fillColor=#fff2cc;strokeColor=#d6b656;" vertex="1" parent="1">
          <mxGeometry x="560" y="140" width="20" height="20" as="geometry" />
        </mxCell>
        <mxCell id="pO1jTsx1TpuLJ8HW07vw-26" value="" style="whiteSpace=wrap;html=1;aspect=fixed;fillColor=#d5e8d4;strokeColor=#82b366;" vertex="1" parent="1">
          <mxGeometry x="560" y="170" width="20" height="20" as="geometry" />
        </mxCell>
        <mxCell id="pO1jTsx1TpuLJ8HW07vw-27" value="" style="whiteSpace=wrap;html=1;aspect=fixed;fillColor=#dae8fc;strokeColor=#6c8ebf;" vertex="1" parent="1">
          <mxGeometry x="560" y="200" width="20" height="20" as="geometry" />
        </mxCell>
        <mxCell id="pO1jTsx1TpuLJ8HW07vw-28" value="" style="whiteSpace=wrap;html=1;aspect=fixed;fillColor=#e1d5e7;strokeColor=#9673a6;" vertex="1" parent="1">
          <mxGeometry x="560" y="230" width="20" height="20" as="geometry" />
        </mxCell>
        <mxCell id="pO1jTsx1TpuLJ8HW07vw-29" value="" style="whiteSpace=wrap;html=1;aspect=fixed;fillColor=#f8cecc;strokeColor=#b85450;" vertex="1" parent="1">
          <mxGeometry x="560" y="260" width="20" height="20" as="geometry" />
        </mxCell>
        <mxCell id="pO1jTsx1TpuLJ8HW07vw-30" value="Servicios" style="text;html=1;strokeColor=none;fillColor=none;align=left;verticalAlign=middle;whiteSpace=wrap;rounded=0;" vertex="1" parent="1">
          <mxGeometry x="590" y="135" width="60" height="30" as="geometry" />
        </mxCell>
        <mxCell id="pO1jTsx1TpuLJ8HW07vw-31" value="Entidades" style="text;html=1;strokeColor=none;fillColor=none;align=left;verticalAlign=middle;whiteSpace=wrap;rounded=0;" vertex="1" parent="1">
          <mxGeometry x="590" y="165" width="60" height="30" as="geometry" />
        </mxCell>
        <mxCell id="pO1jTsx1TpuLJ8HW07vw-33" value="Controladores" style="text;html=1;strokeColor=none;fillColor=none;align=left;verticalAlign=middle;whiteSpace=wrap;rounded=0;" vertex="1" parent="1">
          <mxGeometry x="590" y="195" width="80" height="30" as="geometry" />
        </mxCell>
        <mxCell id="pO1jTsx1TpuLJ8HW07vw-34" value="Repositorios" style="text;html=1;strokeColor=none;fillColor=none;align=left;verticalAlign=middle;whiteSpace=wrap;rounded=0;" vertex="1" parent="1">
          <mxGeometry x="590" y="225" width="90" height="30" as="geometry" />
        </mxCell>
        <mxCell id="pO1jTsx1TpuLJ8HW07vw-35" value="Modulos" style="text;html=1;strokeColor=none;fillColor=none;align=left;verticalAlign=middle;whiteSpace=wrap;rounded=0;" vertex="1" parent="1">
          <mxGeometry x="590" y="255" width="60" height="30" as="geometry" />
        </mxCell>
        <mxCell id="pO1jTsx1TpuLJ8HW07vw-36" value="" style="shape=folder;fontStyle=1;spacingTop=10;tabWidth=40;tabHeight=14;tabPosition=left;html=1;whiteSpace=wrap;" vertex="1" parent="1">
          <mxGeometry x="10" y="470" width="430" height="440" as="geometry" />
        </mxCell>
        <mxCell id="pO1jTsx1TpuLJ8HW07vw-38" value="auth.module.ts" style="shape=module;align=left;spacingLeft=20;align=center;verticalAlign=middle;whiteSpace=wrap;html=1;fillColor=#f8cecc;strokeColor=#b85450;" vertex="1" parent="1">
          <mxGeometry x="160" y="830" width="110" height="50" as="geometry" />
        </mxCell>
        <mxCell id="pO1jTsx1TpuLJ8HW07vw-42" value="parent authentication component" style="text;html=1;strokeColor=none;fillColor=none;align=center;verticalAlign=middle;whiteSpace=wrap;rounded=0;" vertex="1" parent="1">
          <mxGeometry x="70" y="460" width="190" height="30" as="geometry" />
        </mxCell>
        <mxCell id="pO1jTsx1TpuLJ8HW07vw-59" style="edgeStyle=orthogonalEdgeStyle;rounded=1;orthogonalLoop=1;jettySize=auto;html=1;entryX=0;entryY=0;entryDx=0;entryDy=30.5;entryPerimeter=0;dashed=1;fillColor=#e1d5e7;strokeColor=#9673a6;" edge="1" parent="1" source="pO1jTsx1TpuLJ8HW07vw-43" target="pO1jTsx1TpuLJ8HW07vw-45">
          <mxGeometry relative="1" as="geometry" />
        </mxCell>
        <mxCell id="pO1jTsx1TpuLJ8HW07vw-64" style="edgeStyle=orthogonalEdgeStyle;rounded=1;orthogonalLoop=1;jettySize=auto;html=1;exitX=0.75;exitY=1;exitDx=0;exitDy=0;exitPerimeter=0;endArrow=diamondThin;endFill=0;endSize=15;fillColor=#f8cecc;strokeColor=#b85450;" edge="1" parent="1" source="pO1jTsx1TpuLJ8HW07vw-43" target="pO1jTsx1TpuLJ8HW07vw-38">
          <mxGeometry relative="1" as="geometry">
            <Array as="points">
              <mxPoint x="108" y="620" />
              <mxPoint x="140" y="620" />
              <mxPoint x="140" y="715" />
              <mxPoint x="215" y="715" />
            </Array>
          </mxGeometry>
        </mxCell>
        <mxCell id="pO1jTsx1TpuLJ8HW07vw-43" value="user-by-role component package" style="shape=folder;fontStyle=1;spacingTop=10;tabWidth=40;tabHeight=14;tabPosition=left;html=1;whiteSpace=wrap;" vertex="1" parent="1">
          <mxGeometry x="40" y="520" width="90" height="80" as="geometry" />
        </mxCell>
        <mxCell id="pO1jTsx1TpuLJ8HW07vw-60" style="edgeStyle=orthogonalEdgeStyle;rounded=1;orthogonalLoop=1;jettySize=auto;html=1;entryX=0;entryY=0;entryDx=0;entryDy=63.5;entryPerimeter=0;dashed=1;fillColor=#e1d5e7;strokeColor=#9673a6;" edge="1" parent="1" source="pO1jTsx1TpuLJ8HW07vw-44" target="pO1jTsx1TpuLJ8HW07vw-45">
          <mxGeometry relative="1" as="geometry" />
        </mxCell>
        <mxCell id="pO1jTsx1TpuLJ8HW07vw-61" style="edgeStyle=orthogonalEdgeStyle;rounded=1;orthogonalLoop=1;jettySize=auto;html=1;entryX=0.25;entryY=0;entryDx=0;entryDy=0;fillColor=#f8cecc;strokeColor=#b85450;endArrow=diamondThin;endFill=0;endSize=15;" edge="1" parent="1" source="pO1jTsx1TpuLJ8HW07vw-44" target="pO1jTsx1TpuLJ8HW07vw-38">
          <mxGeometry relative="1" as="geometry">
            <Array as="points">
              <mxPoint x="85" y="770" />
              <mxPoint x="188" y="770" />
            </Array>
          </mxGeometry>
        </mxCell>
        <mxCell id="pO1jTsx1TpuLJ8HW07vw-44" value="user-role component package" style="shape=folder;fontStyle=1;spacingTop=10;tabWidth=40;tabHeight=14;tabPosition=left;html=1;whiteSpace=wrap;" vertex="1" parent="1">
          <mxGeometry x="40" y="660" width="90" height="80" as="geometry" />
        </mxCell>
        <mxCell id="pO1jTsx1TpuLJ8HW07vw-63" style="edgeStyle=orthogonalEdgeStyle;rounded=1;orthogonalLoop=1;jettySize=auto;html=1;exitX=0.5;exitY=1;exitDx=0;exitDy=0;exitPerimeter=0;entryX=0.75;entryY=0;entryDx=0;entryDy=0;endArrow=diamondThin;endFill=0;endSize=15;fillColor=#f8cecc;strokeColor=#b85450;" edge="1" parent="1" source="pO1jTsx1TpuLJ8HW07vw-45" target="pO1jTsx1TpuLJ8HW07vw-38">
          <mxGeometry relative="1" as="geometry" />
        </mxCell>
        <mxCell id="pO1jTsx1TpuLJ8HW07vw-45" value="user component package" style="shape=folder;fontStyle=1;spacingTop=10;tabWidth=40;tabHeight=14;tabPosition=left;html=1;whiteSpace=wrap;" vertex="1" parent="1">
          <mxGeometry x="180" y="600" width="90" height="80" as="geometry" />
        </mxCell>
        <mxCell id="pO1jTsx1TpuLJ8HW07vw-58" style="edgeStyle=orthogonalEdgeStyle;rounded=1;orthogonalLoop=1;jettySize=auto;html=1;dashed=1;fillColor=#e1d5e7;strokeColor=#9673a6;" edge="1" parent="1" source="pO1jTsx1TpuLJ8HW07vw-47" target="pO1jTsx1TpuLJ8HW07vw-45">
          <mxGeometry relative="1" as="geometry" />
        </mxCell>
        <mxCell id="pO1jTsx1TpuLJ8HW07vw-62" style="edgeStyle=orthogonalEdgeStyle;rounded=1;orthogonalLoop=1;jettySize=auto;html=1;entryX=1;entryY=0;entryDx=0;entryDy=0;endArrow=diamondThin;endFill=0;endSize=15;fillColor=#f8cecc;strokeColor=#b85450;" edge="1" parent="1" source="pO1jTsx1TpuLJ8HW07vw-47" target="pO1jTsx1TpuLJ8HW07vw-38">
          <mxGeometry relative="1" as="geometry">
            <Array as="points">
              <mxPoint x="369" y="750" />
              <mxPoint x="270" y="750" />
            </Array>
          </mxGeometry>
        </mxCell>
        <mxCell id="pO1jTsx1TpuLJ8HW07vw-47" value="role-by-action component package" style="shape=folder;fontStyle=1;spacingTop=10;tabWidth=40;tabHeight=14;tabPosition=left;html=1;whiteSpace=wrap;" vertex="1" parent="1">
          <mxGeometry x="323.5" y="520" width="90" height="80" as="geometry" />
        </mxCell>
        <mxCell id="pO1jTsx1TpuLJ8HW07vw-54" style="edgeStyle=orthogonalEdgeStyle;rounded=1;orthogonalLoop=1;jettySize=auto;html=1;entryX=0;entryY=0;entryDx=0;entryDy=47;entryPerimeter=0;" edge="1" parent="1" source="pO1jTsx1TpuLJ8HW07vw-53" target="pO1jTsx1TpuLJ8HW07vw-43">
          <mxGeometry relative="1" as="geometry">
            <Array as="points">
              <mxPoint x="-40" y="640" />
              <mxPoint x="-40" y="567" />
            </Array>
          </mxGeometry>
        </mxCell>
        <mxCell id="pO1jTsx1TpuLJ8HW07vw-55" style="edgeStyle=orthogonalEdgeStyle;rounded=1;orthogonalLoop=1;jettySize=auto;html=1;" edge="1" parent="1" source="pO1jTsx1TpuLJ8HW07vw-53" target="pO1jTsx1TpuLJ8HW07vw-44">
          <mxGeometry relative="1" as="geometry">
            <Array as="points">
              <mxPoint x="-40" y="640" />
              <mxPoint x="-40" y="700" />
            </Array>
          </mxGeometry>
        </mxCell>
        <mxCell id="pO1jTsx1TpuLJ8HW07vw-56" style="edgeStyle=orthogonalEdgeStyle;rounded=1;orthogonalLoop=1;jettySize=auto;html=1;" edge="1" parent="1" source="pO1jTsx1TpuLJ8HW07vw-53" target="pO1jTsx1TpuLJ8HW07vw-45">
          <mxGeometry relative="1" as="geometry">
            <Array as="points">
              <mxPoint x="-60" y="640" />
              <mxPoint x="-60" y="640" />
            </Array>
          </mxGeometry>
        </mxCell>
        <mxCell id="pO1jTsx1TpuLJ8HW07vw-57" style="edgeStyle=orthogonalEdgeStyle;rounded=1;orthogonalLoop=1;jettySize=auto;html=1;entryX=0;entryY=0;entryDx=0;entryDy=30.5;entryPerimeter=0;" edge="1" parent="1" source="pO1jTsx1TpuLJ8HW07vw-53" target="pO1jTsx1TpuLJ8HW07vw-47">
          <mxGeometry relative="1" as="geometry">
            <Array as="points">
              <mxPoint x="-185" y="510" />
              <mxPoint x="170" y="510" />
              <mxPoint x="170" y="551" />
            </Array>
          </mxGeometry>
        </mxCell>
        <mxCell id="pO1jTsx1TpuLJ8HW07vw-53" value="response.interseptor.ts" style="shape=module;align=left;spacingLeft=20;align=center;verticalAlign=middle;whiteSpace=wrap;html=1;fillColor=#f5f5f5;strokeColor=#666666;fontColor=#333333;" vertex="1" parent="1">
          <mxGeometry x="-250" y="615" width="170" height="50" as="geometry" />
        </mxCell>
        <mxCell id="pO1jTsx1TpuLJ8HW07vw-67" style="edgeStyle=orthogonalEdgeStyle;rounded=1;orthogonalLoop=1;jettySize=auto;html=1;exitX=1;exitY=0.5;exitDx=0;exitDy=0;entryX=0.25;entryY=1;entryDx=0;entryDy=0;dashed=1;" edge="1" parent="1" source="pO1jTsx1TpuLJ8HW07vw-65" target="pO1jTsx1TpuLJ8HW07vw-38">
          <mxGeometry relative="1" as="geometry">
            <Array as="points">
              <mxPoint x="-30" y="725" />
              <mxPoint x="-30" y="930" />
              <mxPoint x="188" y="930" />
            </Array>
          </mxGeometry>
        </mxCell>
        <mxCell id="pO1jTsx1TpuLJ8HW07vw-65" value="jwr.middleware.ts" style="shape=module;align=left;spacingLeft=20;align=center;verticalAlign=middle;whiteSpace=wrap;html=1;fillColor=#f5f5f5;fontColor=#333333;strokeColor=#666666;" vertex="1" parent="1">
          <mxGeometry x="-250" y="700" width="170" height="50" as="geometry" />
        </mxCell>
        <mxCell id="pO1jTsx1TpuLJ8HW07vw-69" style="edgeStyle=orthogonalEdgeStyle;rounded=1;orthogonalLoop=1;jettySize=auto;html=1;entryX=0.25;entryY=1;entryDx=0;entryDy=0;entryPerimeter=0;dashed=1;" edge="1" parent="1" source="pO1jTsx1TpuLJ8HW07vw-68" target="pO1jTsx1TpuLJ8HW07vw-45">
          <mxGeometry relative="1" as="geometry">
            <Array as="points">
              <mxPoint x="203" y="800" />
            </Array>
          </mxGeometry>
        </mxCell>
        <mxCell id="pO1jTsx1TpuLJ8HW07vw-70" style="edgeStyle=orthogonalEdgeStyle;rounded=1;orthogonalLoop=1;jettySize=auto;html=1;entryX=0;entryY=0;entryDx=0;entryDy=63.5;entryPerimeter=0;dashed=1;" edge="1" parent="1" source="pO1jTsx1TpuLJ8HW07vw-68" target="pO1jTsx1TpuLJ8HW07vw-43">
          <mxGeometry relative="1" as="geometry" />
        </mxCell>
        <mxCell id="pO1jTsx1TpuLJ8HW07vw-68" value="valid-role.guard.ts" style="shape=module;align=left;spacingLeft=20;align=center;verticalAlign=middle;whiteSpace=wrap;html=1;fillColor=#f5f5f5;fontColor=#333333;strokeColor=#666666;" vertex="1" parent="1">
          <mxGeometry x="-250" y="790" width="170" height="50" as="geometry" />
        </mxCell>
        <mxCell id="pO1jTsx1TpuLJ8HW07vw-71" value="" style="shape=folder;fontStyle=1;spacingTop=10;tabWidth=40;tabHeight=14;tabPosition=left;html=1;whiteSpace=wrap;" vertex="1" parent="1">
          <mxGeometry x="10" y="1057.5" width="430" height="440" as="geometry" />
        </mxCell>
        <mxCell id="pO1jTsx1TpuLJ8HW07vw-72" value="response.interseptor.ts" style="shape=module;align=left;spacingLeft=20;align=center;verticalAlign=middle;whiteSpace=wrap;html=1;fillColor=#f5f5f5;strokeColor=#666666;fontColor=#333333;" vertex="1" parent="1">
          <mxGeometry x="-250" y="1160" width="170" height="50" as="geometry" />
        </mxCell>
        <mxCell id="pO1jTsx1TpuLJ8HW07vw-73" value="jwr.middleware.ts" style="shape=module;align=left;spacingLeft=20;align=center;verticalAlign=middle;whiteSpace=wrap;html=1;fillColor=#f5f5f5;fontColor=#333333;strokeColor=#666666;" vertex="1" parent="1">
          <mxGeometry x="-250" y="1245" width="170" height="50" as="geometry" />
        </mxCell>
        <mxCell id="pO1jTsx1TpuLJ8HW07vw-74" value="valid-role.guard.ts" style="shape=module;align=left;spacingLeft=20;align=center;verticalAlign=middle;whiteSpace=wrap;html=1;fillColor=#f5f5f5;fontColor=#333333;strokeColor=#666666;" vertex="1" parent="1">
          <mxGeometry x="-250" y="1335" width="170" height="50" as="geometry" />
        </mxCell>
        <mxCell id="pO1jTsx1TpuLJ8HW07vw-76" value="api.module.ts" style="shape=module;align=left;spacingLeft=20;align=center;verticalAlign=middle;whiteSpace=wrap;html=1;fillColor=#f8cecc;strokeColor=#b85450;" vertex="1" parent="1">
          <mxGeometry x="160" y="1430" width="110" height="50" as="geometry" />
        </mxCell>
        <mxCell id="pO1jTsx1TpuLJ8HW07vw-78" value="management-tickets component package" style="shape=folder;fontStyle=1;spacingTop=10;tabWidth=40;tabHeight=14;tabPosition=left;html=1;whiteSpace=wrap;" vertex="1" parent="1">
          <mxGeometry x="30" y="1100" width="90" height="80" as="geometry" />
        </mxCell>
        <mxCell id="pO1jTsx1TpuLJ8HW07vw-79" value="ment-alzh component package" style="shape=folder;fontStyle=1;spacingTop=10;tabWidth=40;tabHeight=14;tabPosition=left;html=1;whiteSpace=wrap;" vertex="1" parent="1">
          <mxGeometry x="170" y="1100" width="90" height="80" as="geometry" />
        </mxCell>
        <mxCell id="pO1jTsx1TpuLJ8HW07vw-80" value="non-user-ment-alzh&amp;nbsp;component package" style="shape=folder;fontStyle=1;spacingTop=10;tabWidth=40;tabHeight=14;tabPosition=left;html=1;whiteSpace=wrap;" vertex="1" parent="1">
          <mxGeometry x="310" y="1100" width="90" height="80" as="geometry" />
        </mxCell>
        <mxCell id="pO1jTsx1TpuLJ8HW07vw-81" value="process-type component package" style="shape=folder;fontStyle=1;spacingTop=10;tabWidth=40;tabHeight=14;tabPosition=left;html=1;whiteSpace=wrap;" vertex="1" parent="1">
          <mxGeometry x="30" y="1220" width="90" height="80" as="geometry" />
        </mxCell>
        <mxCell id="pO1jTsx1TpuLJ8HW07vw-82" value="process-type-user component package" style="shape=folder;fontStyle=1;spacingTop=10;tabWidth=40;tabHeight=14;tabPosition=left;html=1;whiteSpace=wrap;" vertex="1" parent="1">
          <mxGeometry x="170" y="1220" width="90" height="80" as="geometry" />
        </mxCell>
        <mxCell id="pO1jTsx1TpuLJ8HW07vw-83" value="test-01-alzh component package" style="shape=folder;fontStyle=1;spacingTop=10;tabWidth=40;tabHeight=14;tabPosition=left;html=1;whiteSpace=wrap;" vertex="1" parent="1">
          <mxGeometry x="310" y="1220" width="90" height="80" as="geometry" />
        </mxCell>
      </root>
    </mxGraphModel>
  </diagram>
</mxfile>
